{"title":"Armored.2009.SWESUB.DVDRip.XviD.AC3.-Zen_Bud","uid":5540657,"size":1469679072,"categoryP":"video","categoryS":"movies","magnet":"?xt=urn:btih:68c48128d83c990da03a01f32bebb08348ab22be&amp;dn=Armored.2009.SWESUB.DVDRip.XviD.AC3.-Zen_Bud&amp;tr=udp%3A%2F%2Ftracker.openbittorrent.com%3A80&amp;tr=udp%3A%2F%2Fopen.demonii.com%3A1337&amp;tr=udp%3A%2F%2Ftracker.coppersurfer.tk%3A6969&amp;tr=udp%3A%2F%2Fexodus.desync.com%3A6969","seeders":0,"leechers":1,"uploader":"Zen_Bud","files":-1,"time":1273215981,"description":"General\nComplete name                    : Armored.avi\nFormat                           : AVI\nFile size                        : 1.37 GiB\nDuration                         : 1h 27mn\nOverall bit rate                 : 2 230 Kbps\n\nVideo\nID                               : 0\nFormat                           : MPEG-4 Visual\nCodec ID/Hint                    : XviD\nDuration                         : 1h 27mn\nBit rate                         : 1 771 Kbps\nWidth                            : 720 pixels\nHeight                           : 428 pixels\nDisplay aspect ratio             : 2.35:1\nResolution                       : 8 bits\nColorimetry                      : 4:2:0\nBits/(Pixel*Frame)               : 0.230\nStream size                      : 1.09 GiB (79%)\nWriting library                  : XviD 1.1.2 (UTC 2006-11-01)\n\nAudio\nID                               : 1\nFormat                           : AC-3\nDuration                         : 1h 27mn\nBit rate                         : 448 Kbps\nChannel(s)                       : 6 channels\nChannel positions                : Front: L C R, Side: L R, LFE\nSampling rate                    : 48.0 KHz\nStream size                      : 282 MiB (20%)\n\n\n","torrent":{"xt":"urn:btih:68c48128d83c990da03a01f32bebb08348ab22be","amp;dn":"Armored.2009.SWESUB.DVDRip.XviD.AC3.-Zen_Bud","amp;tr":["udp%3A%2F%2Ftracker.openbittorrent.com%3A80","udp%3A%2F%2Fopen.demonii.com%3A1337","udp%3A%2F%2Ftracker.coppersurfer.tk%3A6969","udp%3A%2F%2Fexodus.desync.com%3A6969"],"infoHash":"68c48128d83c990da03a01f32bebb08348ab22be","infoHashBuffer":{"type":"Buffer","data":[104,196,129,40,216,60,153,13,160,58,1,243,43,235,176,131,72,171,34,190]},"announce":[],"urlList":[]}}